<?xml version="1.0" encoding="UTF-8" standalone="no"?>
<svg
   xmlns:dc="http://purl.org/dc/elements/1.1/"
   xmlns:cc="http://creativecommons.org/ns#"
   xmlns:rdf="http://www.w3.org/1999/02/22-rdf-syntax-ns#"
   xmlns:svg="http://www.w3.org/2000/svg"
   xmlns="http://www.w3.org/2000/svg"
   xmlns:sodipodi="http://sodipodi.sourceforge.net/DTD/sodipodi-0.dtd"
   xmlns:inkscape="http://www.inkscape.org/namespaces/inkscape"
   width="400"
   height="130"
   viewBox="0 0 105.83333 34.395833"
   version="1.1"
   id="svg8"
   inkscape:version="1.0.1 (3bc2e813f5, 2020-09-07)"
   sodipodi:docname="logo.svg">
  <defs
     id="defs2" />
  <sodipodi:namedview
     id="base"
     pagecolor="#ffffff"
     bordercolor="#666666"
     borderopacity="1.0"
     inkscape:pageopacity="0.0"
     inkscape:pageshadow="2"
     inkscape:zoom="1.8455357"
     inkscape:cx="197.89518"
     inkscape:cy="49.628499"
     inkscape:document-units="mm"
     inkscape:current-layer="layer1"
     inkscape:document-rotation="0"
     showgrid="false"
     units="px"
     inkscape:window-width="1920"
     inkscape:window-height="1017"
     inkscape:window-x="-8"
     inkscape:window-y="-8"
     inkscape:window-maximized="1" />
  <metadata
     id="metadata5">
    <rdf:RDF>
      <cc:Work
         rdf:about="">
        <dc:format>image/svg+xml</dc:format>
        <dc:type
           rdf:resource="http://purl.org/dc/dcmitype/StillImage" />
        <dc:title />
      </cc:Work>
    </rdf:RDF>
  </metadata>
  <g
     inkscape:label="Layer 1"
     inkscape:groupmode="layer"
     id="layer1">
    <text
       xml:space="preserve"
       style="font-style:normal;font-weight:normal;font-size:24.4447px;line-height:1.25;font-family:sans-serif;fill:#191919;fill-opacity:1;stroke:none;stroke-width:0.61112;letter-spacing:0.52916667px"
       x="34.42395"
       y="24.863787"
       id="text835"><tspan
         sodipodi:role="line"
         id="tspan833"
         x="34.42395"
         y="24.863787"
         style="font-style:normal;font-variant:normal;font-weight:normal;font-stretch:normal;font-family:Helvetica;-inkscape-font-specification:Helvetica;fill:#191919;fill-opacity:1;stroke-width:0.61112;">LogIT</tspan></text>
    <g
       class="aIptOCySncolors-0a1ZXKpG0O8"
       id="g1416"
       transform="matrix(4.8937552e-4,0,0,4.8937552e-4,6.2463741,2.6535864)"
       style="fill:#4b77ff;fill-opacity:1">
      <defs
         id="defs1410" />
      <g
         id="g1414"
         style="fill:#4b77ff;fill-opacity:1">
        <path
           class="fil0"
           d="M 912.60975,13818.664 11472.61,6485.6637 c -60,-134 -93,-282 -93,-438 0,-297 120,-565 315,-759 194,-194 463,-315 759,-315 297,0 565,120 759,315 141,141 243,321 288,523 1030,-36 2061,-73 3091,-109 77,-392 269,-743 541,-1014 357,-357 850,-578 1395,-578 545,0 1038,221 1395,578 240,240 418,541 510,879 l 3410,-121 c 35,-222 140,-420 292,-572 188,-188 448,-304 735,-304 287,0 547,116 735,304 188,188 304,448 304,735 0,118 -20,232 -56,338 3484,2011 6967,4022 10451,6032.0003 88,-27 180,-41 277,-41 263,0 501,107 673,279 172,172 279,410 279,673 0,89 -12,176 -35,258 1258,1847 2517,3695 3775,5542 251,-124 533,-194 832,-194 519,0 988,210 1328,550 340,340 550,810 550,1328 0,519 -210,988 -550,1328 -222,222 -499,389 -809,478 433,3287 866,6574 1298,9861 232,19 440,121 595,276 172,172 279,410 279,673 0,263 -107,501 -279,673 -172,172 -410,279 -673,279 -57,0 -112,-5 -166,-14 -1340,3534 -2680,7068 -4021,10601 56,37 109,79 156,126 172,172 279,410 279,673 0,263 -107,501 -279,673 -172,172 -410,279 -673,279 -223,0 -428,-77 -591,-206 -3574,2315 -7148,4630 -10723,6945 40,105 62,219 62,338 0,263 -107,501 -279,673 -172,172 -410,279 -673,279 -263,0 -501,-107 -673,-279 -120,-120 -209,-273 -251,-444 -3048,187 -6095,374 -9143,560 -48,135 -125,256 -225,356 -172,172 -410,279 -673,279 -263,0 -501,-107 -673,-279 -172,-172 -279,-410 -279,-673 v -1 c -1262,-551 -2525,-1102 -3787,-1653 -172,168 -406,271 -665,271 -263,0 -501,-107 -673.0002,-279 -172,-172 -279,-410 -279,-673 0,-9 0,-17 0,-25 -1269,-554 -2537,-1108 -3806,-1662 l -4441,-4067 c -156,111 -346,176 -552.00005,176 -263,0 -501,-107 -673,-279 -171.999999,-172 -279,-410 -279,-673 0,-261 105.000001,-497 275,-669 l -3218.99995,-4922 c -248,110 -523,171 -812,171 -554,0 -1055,-224 -1418,-587 -363,-363 -587,-864 -587,-1418 0,-554 224,-1055 587,-1418 263,-263 598,-453 974,-538 -199,-1798 -398,-3596 -597,-5394 399,-2605 798,-5211 1196,-7817 -168,-172 -271,-406 -271,-665 0,-263 107,-501 279,-673 146,-146 339,-244 554,-271 869,-1756 1738,-3513 2606.99995,-5269 -70,-45 -135,-97 -194,-155 -205,-205 -330.99995,-488 -330.99995,-800 0,-312 126.99995,-595 330.99995,-800 205,-205 488,-331 800.000001,-331 311.999999,0 594.999999,127 799.999999,331 26,26 50,53 73,81 z m -4212.99995,25214 -428,-654 c -64,14 -131,21 -200,21 -263,0 -501,-107 -673,-279 -172,-172 -279,-410 -279,-673 0,-285 117,-500 310,-652 103,-81 222,-137 351,-170 l -71,-642 c -283,72 -535,220 -735,420 -291,291 -470,692 -470,1135 0,443 180,845 470,1135 291,291 692,470 1135,470 208,0 407,-40 590,-112 z m -590,-3499 c 554,0 1055,224 1418,587 128,128 239,274 329,432 l 7173,-4021 c -34,-120 -53,-246 -53,-377 0,-284 87,-547 235,-766 l -8091,-8748 c -57,11 -116,16 -176,16 -109,0 -214,-18 -312,-52 l -1162,7593 591,5335 c 16,0 32,-1 48,-1 z m 1908,1387 c 63,195 97,402 97,618 0,554 -224,1055 -587,1418 -80,80 -166,153 -258,218 l 3204.99995,4901 c 106,-41 221,-63 342,-63 263.00005,0 501.00005,107 673.00005,279 118,118 205,267 249,434 l 3286,-166 c 26,-497 237,-944 567,-1274 286,-286 661,-484 1080,-548 -153,-3074 -307,-6148 -461,-9222 -325,-31 -616,-176 -834,-394 -68,-68 -129,-143 -181,-224 z m -773,-517 c -291,-291 -692,-470 -1135,-470 h -4 l 73,661 c 198,17 384,82 534,200 95,75 172,166 225,273 l 569,-319 c -72,-127 -160,-243 -263,-345 z m -194,2436 c 69,-50 134,-105 194,-166 291,-291 470,-692 470,-1135 0,-144 -19,-284 -55,-418 l -638,357 c -8,250 -113,476 -278,642 -33,33 -68,63 -105,91 l 411,629 z M 17005.61,5687.6637 l 687,-24 c 39,-62 85,-120 136,-172 172,-172 410,-279 673,-279 263,0 501,107 673,279 36,36 69,75 99,116 l 746,-26 c -78,-233 -209,-441 -379,-610 -285,-285 -678,-461 -1112,-461 -434,0 -828,176 -1112,461 -195,195 -339,441 -411,717 z m 3492,275 c 2,40 4,80 4,120 0,545 -221,1038 -578,1395 -152,152 -330,280 -525,376 l 2117,4283.0003 c 53,-9 107,-14 163,-14 131,0 257,27 371,75 l 2259,-5714.0003 c -63,-40 -121,-88 -174,-140 -135,-135 -233,-307 -278,-500 z m -1475,2030 c -158,41 -323,62 -494,62 -545,0 -1038,-221 -1395,-578 -353,-353 -573,-838 -578,-1376 l -3041,107 c -35,232 -144,439 -302,597 -194,194 -463,315 -759,315 -49,0 -97,-3 -143,-10 l -2286,6890.0003 c 248,104 471,255 658,442 230,230 406,516 506,834 l 9561,-1997 c -15,-66 -22,-136 -22,-206 0,-263 107,-501 279,-673 42,-42 89,-81 139,-115 l -2122,-4294.0003 z m -2066,-1905 c 1,432 177,823 461,1107 285,285 678,461 1112,461 107,0 211,-11 311,-31 l -253,-512 c -28,2 -56,4 -84,4 -263,0 -501,-107 -673,-279 -172,-172 -279,-410 -279,-673 0,-33 2,-66 5,-98 z m 2265,1407 c 156,-77 298,-179 420,-300 285,-285 461,-678 461,-1112 0,-36 -1,-71 -4,-106 l -658,23 c 9,53 14,108 14,164 0,263 -107,501 -279,673 -60,60 -128,112 -203,155 z m 22279,11529.0003 296,435 c 96,-31 199,-48 306,-48 274,0 522,111 702,291 180,180 291,428 291,702 0,274 -111,522 -291,702 -85,85 -185,154 -296,204 l 62,467 c 221,-73 419,-197 579,-358 268,-268 433,-637 433,-1045 0,-408 -165,-778 -433,-1045 -268,-268 -637,-433 -1045,-433 -215,0 -420,46 -604,129 z m 730,3224 c -42,3 -83,4 -126,4 -519,0 -988,-210 -1328,-550 -193,-193 -345,-429 -439,-691 l -6919,1576 c 2,25 2,50 2,75 0,242 -70,467 -191,657 l 10071,8888 c 69,-48 144,-87 225,-115 l -1295,-9843 z m -1988,-1625 c -11,-82 -16,-165 -16,-249 0,-519 210,-988 550,-1328 50,-50 103,-98 159,-142 l -3656,-5367 c -8,9 -17,18 -25,26 -172,172 -410,279 -673,279 -128,0 -250,-25 -361,-71 l -3402,7835 c 88,53 170,116 242,188 115,115 207,252 269,404 l 6913,-1574 z m 919,-1388 c -36,29 -70,61 -102,93 -268,268 -433,637 -433,1045 0,54 3,107 9,160 l 475,-108 c 0,-7 0,-14 0,-22 0,-274 111,-522 291,-702 16,-16 32,-31 48,-45 l -287,-422 z m -431,1686 c 75,188 188,357 328,498 268,268 637,433 1045,433 25,0 49,-1 73,-2 l -60,-454 c -5,0 -10,0 -16,0 -274,0 -522,-111 -702,-291 -84,-84 -153,-182 -202,-292 l -468,106 z m -39620.0002,-6752 c 40,116 62,240 62,370 0,17 0,35 -1,52 l 6077,827 c 89,-375 281,-710 544,-974 370,-370 881,-599 1446,-599 139,0 275,14 407,40 L 11934.61,6986.6637 c -85,-47 -163,-106 -231,-173 L 1112.6098,14168.664 Z m -28,812 c -57,135 -140.00005,256 -242.00005,358 -205,205 -488,331 -799.999999,331 -81,0 -160.000001,-9 -237.000001,-25 l -2552.99995,5160 c 140,47 266,127 368,229 121,121 209,273 251,445 l 9521,-4711 c -127,-266 -198,-564 -198,-879 0,-26 0,-51 1,-77 l -6112,-831 z m 28519.0002,26282 c 443,54 839,256 1139,556 352,352 570,838 570,1376 0,128 -12,254 -36,375 l 6962,1460 c 37,-111 93,-213 165,-301 l -7754,-9635 c -19,1 -38,2 -57,2 -121,0 -237,-23 -343,-64 l -646,6233 z m 1556,2689 c -98,232 -241,442 -417,618 -352,352 -838,570 -1376,570 -537,0 -1024,-218 -1376,-570 -352,-352 -570,-838 -570,-1376 0,-49 2,-98 5,-146 l -5471,-1536 c -49,82 -107,157 -174,224 -59,59 -124,111 -195,156 l 2423,4927 c 56,-5 113,-7 170,-7 537,0 1024,218 1376,570 227,227 398,510 491,826 l 11743,-2865 -6630,-1390 z m -3661,-1299 c 92,-320 265,-605 494,-834 316,-316 740,-524 1212,-563 l 672,-6487 c -32,-37 -61,-76 -87,-117 l -7791,5758 c 77,154 121,329 121,513 0,73 -7,145 -20,215 l 5400,1516 z m -16928,7890 c 263,0 501,107 673,279 172,172 279,410 279,673 0,121 -22,236 -63,342 l 3652,1594 c 47,-103 113,-196 192,-275 172,-172 410,-279 673,-279 55,0 109,5 162,14 l 2023,-5291 -9356.0002,-2285 c -98,275 -256,521 -457,723 -82,82 -170,156 -265,222 l 2370.0002,4292 c 39,-5 79,-8 120,-8 z m -855.0002,533 c 46,-95 108,-180 182,-254 52,-52 109.0002,-97 171.0002,-136 l -2338.0002,-4233 c -234,99 -491,154 -761,154 -537,0 -1024,-218 -1376,-570 -286,-286 -483,-660 -547,-1079 l -3290,167 c -20,116 -60,224 -117,322 l 4391,4021 3684,1608 z m 6791.0002,1964 c 50,34 97,73 140,116 153,153 254,359 275,587 l 9080,-557 c 35,-195 129,-368 264,-503 40,-40 83,-76 130,-109 l -1096,-2228 c -317,224 -704,355 -1121,355 -537,0 -1024,-218 -1376,-570 -352,-352 -570,-838 -570,-1376 0,-54 2,-107 7,-160 l -3690,-901 -2043,5345 z m 10432,-635 c 263,0 501,107 673,279 v 0 l 10684,-6920 c -20,-39 -38,-80 -53,-122 l -12125,2959 c 4,52 6,104 6,156 0,508 -195,971 -514,1318 l 1154,2347 c 57,-11 115,-16 175,-16 z m -4625,-4201 c 93,-315 264,-597 490,-823 221,-221 495,-389 800,-483 l -2386,-4853 c -80,18 -164,27 -250,27 -88,0 -174,-10 -257,-29 l -2017,5277 z m -15241.0002,-5486 c 496,26 943,238 1273,567 352,352 570,838 570,1376 0,90 -6,179 -18,266 l 9405.0002,2297 2040,-5337 c -68,-44 -131,-95 -188,-152 -208,-208 -337,-496 -337,-813 0,-119 18,-234 52,-342 -4185,-2487 -8370,-4975 -12554.0002,-7463 l -5,5 c -187,187 -429,320 -699,374 l 461,9223 z M 25653.61,6291.6637 c -16,18 -32,36 -49,53 -188,188 -448,304 -735,304 -65,0 -128,-6 -189,-17 l -2296,5806.0003 c 140,154 229,355 243,576 l 13223,-734 c 18,-21 37,-42 57,-62 l 4,-4 -10259,-5921.0003 z m -3087,7124.0003 c -21,55 -47,107 -77,156 l 8940,8128 c 209,-166 474,-265 762,-265 87,0 173,9 255,26 l 3439,-7921 c -159,-170 -256,-399 -256,-650 0,-69 7,-136 21,-200 l -13083,726 z m -352,445 c -118,81 -255,136 -404,156 l -2153,12153 c 322,92 611,265 841,495 134,134 248,287 338,455 l 10157,-4181 c -21,-89 -31,-182 -31,-277 0,-246 72,-475 197,-667 l -8947,-8134 z m -804,127 c -155,-45 -293,-129 -405,-240 -30,-30 -58,-61 -83,-95 l -9653,2016 c 8,73 12,146 12,221 0,565 -229,1076 -599,1446 l -7,7 7382,9072 c 306,-201 673,-318 1067,-318 47,0 95,2 141,5 716,-4037 1431,-8075 2145,-12113 z m 21896,19788 c -49,-34 -95,-72 -137,-114 -115,-115 -200,-258 -245,-419 l -11470,1296 c -47,103 -113,197 -192,276 -60,60 -128,112 -202,155 l 7651,9507 c 129,-65 274,-102 428,-102 49,0 97,4 143,11 z m -405,-932 c 19,-125 63,-242 125,-345 l -10064,-8881 c -211,171 -479,273 -772,273 -10,0 -20,0 -29,0 l -1680,8866 -46,448 c 50,-8 101,-12 154,-12 263,0 501,107 673,279 169,169 275,401 279,658 l 11361,-1284 z m -21937,-4173 8828,4951 c 36,-55 77,-105 123,-152 31,-31 64,-60 99,-87 l 70,-678 2,-16 1681,-8874 c -169,-62 -321,-160 -446,-285 -67,-67 -126,-142 -176,-223 l -10157,4181 c 52,175 80,361 80,552 0,220 -37,432 -104,630 z m 8684,5328 -8852,-4964 c -83,140 -183,268 -297,382 -248,248 -562,429 -914,515 l 1357,9841 c 7,0 15,0 22,0 307,0 586,120 792,317 l 7888,-5830 c -5,-38 -7,-77 -7,-116 0,-49 4,-97 11,-144 z m -19283,-16405 c -324,215 -712.0002,340 -1130.0002,340 -54,0 -107,-2 -160,-6 l -2301,12933 c 203,68 384,182 532,330 173,173 299,392 360,637 l 9563.0002,-3337 c -34,-144 -52,-295 -52,-449 0,-537 218,-1023 569,-1375 l -7382,-9072 z m -1682.0002,265 c -343,-96 -649,-279 -894,-523 -70,-70 -135,-145 -194,-224 l -9725,4812 c -41,176 -131,334 -254,457 -34,34 -71,66 -110,94 l 7974,8621 c 235,-191 534,-305 861,-305 13,0 27,0 40,1 768,-4311 1536,-8622 2302,-12933 z m -979,14378 c -12,200 -66,389 -155,557 l 12500.0002,7431 c 31,-41 65,-80 101,-116 112,-112 248,-202 399,-260 -453,-3288 -906,-6576 -1360,-9864 -22,1 -45,1 -67,1 -537,0 -1024,-218 -1376,-570 -159,-159 -290,-344 -386,-550 l -9656.0002,3370 z m -10715,-10529 h -46 l 32,32 c 1,-7 9,-26 13,-32 z"
           id="path1412"
           style="fill:#4b77ff;fill-opacity:1" />
      </g>
    </g>
  </g>
  <style
     id="style1408">.aIptOCySncolors-0a1ZXKpG0O8 {fill:#FF7300;fill-opacity:1;}</style>
</svg>
